<svg width="14" height="11" viewBox="0 0 14 11" fill="none" xmlns="http://www.w3.org/2000/svg">
<path d="M13.3262 7.98242H8.82178V6.94238H13.3262V7.98242ZM8.55811 2.74561C8.55811 1.98877 8.78516 1.37842 9.23926 0.914551C9.69336 0.450684 10.3013 0.21875 11.063 0.21875C11.8247 0.21875 12.4326 0.448242 12.8867 0.907227C13.3457 1.36133 13.5752 1.98633 13.5752 2.78223V3.46338C13.5752 4.22998 13.3481 4.84033 12.894 5.29443C12.4448 5.74854 11.8394 5.97559 11.0776 5.97559C10.3062 5.97559 9.69336 5.74854 9.23926 5.29443C8.78516 4.83545 8.55811 4.21289 8.55811 3.42676V2.74561ZM9.75195 3.46338C9.75195 3.94189 9.8667 4.31299 10.0962 4.57666C10.3306 4.83545 10.6577 4.96484 11.0776 4.96484C11.4878 4.96484 11.8052 4.83545 12.0298 4.57666C12.2593 4.31787 12.3765 3.9541 12.3813 3.48535V2.74561C12.3813 2.27197 12.2642 1.90576 12.0298 1.64697C11.8003 1.3833 11.478 1.25146 11.063 1.25146C10.6528 1.25146 10.3306 1.3833 10.0962 1.64697C9.8667 1.90576 9.75195 2.27686 9.75195 2.76025V3.46338ZM7.37891 11H5.88477L1.5415 2.69434V11H0.186523V0.335938H1.67334L6.03857 8.66357V0.335938H7.37891V11Z" fill="black"/>
</svg>
